<mxfile host="app.diagrams.net" agent="Mozilla/5.0 (Windows NT 10.0; Win64; x64) AppleWebKit/537.36 (KHTML, like Gecko) Chrome/128.0.0.0 Safari/537.36 OPR/114.0.0.0 (Edition std-2)" version="24.8.6">
  <diagram id="R2lEEEUBdFMjLlhIrx00" name="Page-1">
    <mxGraphModel dx="1393" dy="796" grid="1" gridSize="10" guides="1" tooltips="1" connect="1" arrows="1" fold="1" page="1" pageScale="1" pageWidth="850" pageHeight="1100" math="0" shadow="0" extFonts="Permanent Marker^https://fonts.googleapis.com/css?family=Permanent+Marker">
      <root>
        <mxCell id="0" />
        <mxCell id="1" parent="0" />
        <mxCell id="joyfG-hA2_JOUwfc7xr1-26" value="to_have" style="rounded=1;arcSize=10;whiteSpace=wrap;html=1;align=center;" vertex="1" parent="1">
          <mxGeometry x="514" y="502" width="100" height="40" as="geometry" />
        </mxCell>
        <mxCell id="joyfG-hA2_JOUwfc7xr1-23" value="to_write" style="rounded=1;arcSize=10;whiteSpace=wrap;html=1;align=center;" vertex="1" parent="1">
          <mxGeometry x="186" y="502" width="100" height="40" as="geometry" />
        </mxCell>
        <mxCell id="joyfG-hA2_JOUwfc7xr1-5" value="users" style="swimlane;childLayout=stackLayout;horizontal=1;startSize=50;horizontalStack=0;rounded=1;fontSize=14;fontStyle=0;strokeWidth=2;resizeParent=0;resizeLast=1;shadow=0;dashed=0;align=center;arcSize=4;whiteSpace=wrap;html=1;" vertex="1" parent="1">
          <mxGeometry x="100" y="290" width="160" height="160" as="geometry" />
        </mxCell>
        <mxCell id="joyfG-hA2_JOUwfc7xr1-6" value="id&lt;div&gt;email&lt;/div&gt;&lt;div&gt;password&lt;/div&gt;&lt;div&gt;created_at&lt;/div&gt;&lt;div&gt;updated_at&lt;/div&gt;&lt;div&gt;deleted_at&lt;/div&gt;" style="align=left;strokeColor=none;fillColor=none;spacingLeft=4;fontSize=12;verticalAlign=top;resizable=0;rotatable=0;part=1;html=1;" vertex="1" parent="joyfG-hA2_JOUwfc7xr1-5">
          <mxGeometry y="50" width="160" height="110" as="geometry" />
        </mxCell>
        <mxCell id="joyfG-hA2_JOUwfc7xr1-7" value="ideas" style="swimlane;childLayout=stackLayout;horizontal=1;startSize=50;horizontalStack=0;rounded=1;fontSize=14;fontStyle=0;strokeWidth=2;resizeParent=0;resizeLast=1;shadow=0;dashed=0;align=center;arcSize=4;whiteSpace=wrap;html=1;" vertex="1" parent="1">
          <mxGeometry x="540" y="290" width="160" height="160" as="geometry" />
        </mxCell>
        <mxCell id="joyfG-hA2_JOUwfc7xr1-8" value="id&lt;div&gt;&lt;span style=&quot;background-color: initial;&quot;&gt;title&lt;/span&gt;&lt;br&gt;&lt;/div&gt;&lt;div&gt;&lt;span style=&quot;background-color: initial;&quot;&gt;content&lt;/span&gt;&lt;/div&gt;&lt;div&gt;created_at&lt;/div&gt;&lt;div&gt;updated_at&lt;/div&gt;&lt;div&gt;deleted_at&lt;/div&gt;" style="align=left;strokeColor=none;fillColor=none;spacingLeft=4;fontSize=12;verticalAlign=top;resizable=0;rotatable=0;part=1;html=1;" vertex="1" parent="joyfG-hA2_JOUwfc7xr1-7">
          <mxGeometry y="50" width="160" height="110" as="geometry" />
        </mxCell>
        <mxCell id="joyfG-hA2_JOUwfc7xr1-9" value="comments" style="swimlane;childLayout=stackLayout;horizontal=1;startSize=50;horizontalStack=0;rounded=1;fontSize=14;fontStyle=0;strokeWidth=2;resizeParent=0;resizeLast=1;shadow=0;dashed=0;align=center;arcSize=4;whiteSpace=wrap;html=1;" vertex="1" parent="1">
          <mxGeometry x="320" y="430" width="160" height="160" as="geometry" />
        </mxCell>
        <mxCell id="joyfG-hA2_JOUwfc7xr1-10" value="id&lt;div&gt;&lt;span style=&quot;background-color: initial;&quot;&gt;content&lt;/span&gt;&lt;br&gt;&lt;/div&gt;&lt;div&gt;created_at&lt;/div&gt;&lt;div&gt;updated_at&lt;/div&gt;&lt;div&gt;deleted_at&lt;/div&gt;" style="align=left;strokeColor=none;fillColor=none;spacingLeft=4;fontSize=12;verticalAlign=top;resizable=0;rotatable=0;part=1;html=1;" vertex="1" parent="joyfG-hA2_JOUwfc7xr1-9">
          <mxGeometry y="50" width="160" height="110" as="geometry" />
        </mxCell>
        <mxCell id="joyfG-hA2_JOUwfc7xr1-13" value="to_publish" style="rounded=1;arcSize=10;whiteSpace=wrap;html=1;align=center;" vertex="1" parent="1">
          <mxGeometry x="350" y="352" width="100" height="40" as="geometry" />
        </mxCell>
        <mxCell id="joyfG-hA2_JOUwfc7xr1-14" value="" style="line;strokeWidth=1;rotatable=0;dashed=0;labelPosition=right;align=left;verticalAlign=middle;spacingTop=0;spacingLeft=6;points=[];portConstraint=eastwest;" vertex="1" parent="1">
          <mxGeometry x="260" y="380" width="280" height="10" as="geometry" />
        </mxCell>
        <mxCell id="joyfG-hA2_JOUwfc7xr1-17" style="edgeStyle=orthogonalEdgeStyle;rounded=0;orthogonalLoop=1;jettySize=auto;html=1;exitX=0.5;exitY=1;exitDx=0;exitDy=0;entryX=0;entryY=0.5;entryDx=0;entryDy=0;endArrow=none;endFill=0;" edge="1" parent="1" source="joyfG-hA2_JOUwfc7xr1-6" target="joyfG-hA2_JOUwfc7xr1-10">
          <mxGeometry relative="1" as="geometry" />
        </mxCell>
        <mxCell id="joyfG-hA2_JOUwfc7xr1-19" style="edgeStyle=orthogonalEdgeStyle;rounded=0;orthogonalLoop=1;jettySize=auto;html=1;exitX=0.5;exitY=1;exitDx=0;exitDy=0;entryX=1;entryY=0.5;entryDx=0;entryDy=0;endArrow=none;endFill=0;" edge="1" parent="1" source="joyfG-hA2_JOUwfc7xr1-8" target="joyfG-hA2_JOUwfc7xr1-10">
          <mxGeometry relative="1" as="geometry" />
        </mxCell>
        <mxCell id="joyfG-hA2_JOUwfc7xr1-20" value="0, N" style="text;html=1;align=center;verticalAlign=middle;whiteSpace=wrap;rounded=0;" vertex="1" parent="1">
          <mxGeometry x="247" y="360" width="60" height="30" as="geometry" />
        </mxCell>
        <mxCell id="joyfG-hA2_JOUwfc7xr1-21" value="1, 1" style="text;html=1;align=center;verticalAlign=middle;whiteSpace=wrap;rounded=0;" vertex="1" parent="1">
          <mxGeometry x="495" y="360" width="60" height="30" as="geometry" />
        </mxCell>
        <mxCell id="joyfG-hA2_JOUwfc7xr1-22" value="0, N" style="text;html=1;align=center;verticalAlign=middle;whiteSpace=wrap;rounded=0;" vertex="1" parent="1">
          <mxGeometry x="166" y="447" width="60" height="30" as="geometry" />
        </mxCell>
        <mxCell id="joyfG-hA2_JOUwfc7xr1-24" value="1, 1" style="text;html=1;align=center;verticalAlign=middle;whiteSpace=wrap;rounded=0;" vertex="1" parent="1">
          <mxGeometry x="276" y="511" width="60" height="30" as="geometry" />
        </mxCell>
        <mxCell id="joyfG-hA2_JOUwfc7xr1-28" value="1, 1" style="text;html=1;align=center;verticalAlign=middle;whiteSpace=wrap;rounded=0;" vertex="1" parent="1">
          <mxGeometry x="464" y="511" width="60" height="30" as="geometry" />
        </mxCell>
        <mxCell id="joyfG-hA2_JOUwfc7xr1-29" value="0, N" style="text;html=1;align=center;verticalAlign=middle;whiteSpace=wrap;rounded=0;" vertex="1" parent="1">
          <mxGeometry x="575" y="445" width="60" height="30" as="geometry" />
        </mxCell>
      </root>
    </mxGraphModel>
  </diagram>
</mxfile>
